<svg width="19" height="20" viewBox="0 0 19 20" fill="none" xmlns="http://www.w3.org/2000/svg">
<g id="Star">
<path id="Subtract" fill-rule="evenodd" clip-rule="evenodd" d="M0.533584 11.5243C0.10077 11.3233 0.100789 10.6399 0.533614 10.4388C3.67121 8.98147 6.20665 6.44632 7.66438 3.30893C7.86545 2.87619 8.54867 2.87619 8.74973 3.30894C10.2074 6.44623 12.7426 8.98134 15.88 10.4388C16.3128 10.6398 16.3128 11.3232 15.88 11.5243C12.7424 12.9818 10.207 15.5171 8.74944 18.6547C8.54838 19.0875 7.86505 19.0875 7.66399 18.6547C6.20643 15.5172 3.67111 12.9819 0.533584 11.5243Z" fill="#0071F2"/>
<path id="Subtract_2" fill-rule="evenodd" clip-rule="evenodd" d="M12.6118 4.22824C12.3573 4.09252 12.3573 3.66395 12.6118 3.52825C13.6108 2.9957 14.4324 2.17418 14.9651 1.17525C15.1008 0.920748 15.5292 0.920749 15.6649 1.17526C16.1975 2.17411 17.0191 2.99559 18.018 3.52814C18.2725 3.66386 18.2725 4.09242 18.018 4.22813C17.019 4.76074 16.1974 5.58233 15.6648 6.58132C15.5291 6.83587 15.1005 6.83587 14.9648 6.58132C14.4322 5.5824 13.6107 4.76085 12.6118 4.22824Z" fill="#0071F2"/>
</g>
</svg>
